<?xml version="1.0" encoding="UTF-8" standalone="no"?>
<!-- Created with Inkscape (http://www.inkscape.org/) -->

<svg
   width="50"
   height="50"
   viewBox="0 0 13.229167 13.229167"
   version="1.1"
   id="svg5"
   inkscape:version="1.1.1 (3bf5ae0d25, 2021-09-20)"
   sodipodi:docname="grass.svg"
   xmlns:inkscape="http://www.inkscape.org/namespaces/inkscape"
   xmlns:sodipodi="http://sodipodi.sourceforge.net/DTD/sodipodi-0.dtd"
   xmlns="http://www.w3.org/2000/svg"
   xmlns:svg="http://www.w3.org/2000/svg">
  <sodipodi:namedview
     id="namedview7"
     pagecolor="#ffffff"
     bordercolor="#666666"
     borderopacity="1.0"
     inkscape:pageshadow="2"
     inkscape:pageopacity="0.0"
     inkscape:pagecheckerboard="0"
     inkscape:document-units="mm"
     showgrid="false"
     width="50px"
     units="px"
     inkscape:zoom="10.248373"
     inkscape:cx="37.615728"
     inkscape:cy="20.686211"
     inkscape:window-width="1680"
     inkscape:window-height="1013"
     inkscape:window-x="1920"
     inkscape:window-y="0"
     inkscape:window-maximized="1"
     inkscape:current-layer="layer1" />
  <defs
     id="defs2" />
  <g
     inkscape:label="Layer 1"
     inkscape:groupmode="layer"
     id="layer1">
    <path
       style="fill:none;stroke:#008000;stroke-width:0.264583px;stroke-linecap:butt;stroke-linejoin:miter;stroke-opacity:1"
       d="m 1.1266495,1.0114235 c -0.068909,0.1816688 -0.14750885,0.3599517 -0.20672599,0.5450066 -0.0698915,0.2184125 -0.095249,0.4023756 -0.13154999,0.6201802 -0.007282,0.043694 -0.0501198,0.1002328 -0.0187956,0.1315531 0.0435256,0.04352 1.19762448,-0.3391244 1.33432718,-0.3946602 0.157804,-0.064108 0.39718,-0.2042041 0.4134519,-0.1879336 0.1077824,0.1077733 0.044631,0.3017117 0.075176,0.4510407 0.014525,0.071012 0.1696149,0.8837666 0.2255153,0.939667 0.01329,0.01329 0.037739,0.00238 0.05638,0 C 3.106421,3.0865344 3.3383029,3.0558139 3.5697824,3.0223105 3.8144225,2.9869021 4.0584122,2.9471374 4.3027271,2.9095504 4.717661,2.8457144 5.1359082,2.769939 5.5430829,2.6652365 c 0.3751694,-0.096472 0.074521,-0.05627 0.3006974,-0.093967 0.00874,-0.00146 0.027648,-0.018793 0.018788,-0.018793 -0.00627,0 -5.292e-4,0.01255 0,0.018793 0.012012,0.1441265 0.030871,0.2877768 0.037591,0.4322467 0.00582,0.1251537 0,0.2505781 0,0.375867 0.012528,0.1378178 0.028064,0.2753953 0.037585,0.4134536 0.00643,0.093215 -0.029929,0.4774991 0.018788,0.5262133 0.00886,0.00886 0.025458,0.00313 0.037591,0 C 6.1824536,4.270449 6.3737169,4.2311454 6.5579211,4.1687032 7.3326235,3.9060919 7.9795237,3.4502045 8.6251869,2.9659299"
       id="path212" />
    <path
       style="fill:none;stroke:#008000;stroke-width:0.264583px;stroke-linecap:butt;stroke-linejoin:miter;stroke-opacity:1"
       d="m 11.162293,5.4842364 c -0.05011,0.05638 -0.115212,0.1023885 -0.150345,0.1691413 -0.02975,0.056533 -0.02443,0.1254183 -0.03759,0.1879335 -0.08541,0.4056952 -0.0065,0.9129707 -0.225522,1.2779468 -0.0064,0.010745 0.0049,-0.026072 0,-0.037588 C 10.713505,6.9992292 10.677287,6.917024 10.636081,6.8373577 10.513815,6.6009733 10.375196,6.3713335 10.241418,6.1420038 10.180892,6.0382475 10.149835,5.9141007 10.109862,5.9540703 10.055706,6.0082215 9.6834414,6.9968075 9.6212402,7.1756367 9.5608991,7.3491187 9.5490894,7.5911069 9.4896841,7.5515038 9.3013894,7.4259757 9.1540874,7.2477386 8.982267,7.1004638 8.8166124,6.9584741 8.6535846,6.8121267 8.4748435,6.6870103 c -0.00513,-0.00359 8.731e-4,0.012592 0,0.018793 -0.00539,0.037722 -0.012689,0.075146 -0.018788,0.1127591 C 8.4245682,7.0127341 8.4019384,7.2085278 8.3620842,7.4011559 8.2552346,7.9175913 8.1039429,8.444763 7.9298365,8.9422104 7.7522527,9.4495942 7.8210044,9.2182851 7.3848348,8.7166907 7.1754761,8.4759283 6.9526723,8.2469449 6.7270658,8.0213368 6.6765603,7.9708308 6.5784488,7.82137 6.5579246,7.8897836 6.4177306,8.3570931 6.35504,8.8175271 6.2948184,9.2992836 c -0.016026,0.1281906 -0.0022,0.1944759 -0.037585,0.3006926 -0.00198,0.00594 0.00347,-0.013581 0,-0.018793 C 6.2224842,9.5290594 6.1866123,9.4771889 6.1444726,9.4308357 5.9984364,9.2701966 5.8485158,9.1129225 5.6934298,8.9610019 5.4048506,8.6783129 5.1003128,8.4291463 4.7913501,8.1716829"
       id="path214" />
    <path
       style="fill:none;stroke:#008000;stroke-width:0.264583px;stroke-linecap:butt;stroke-linejoin:miter;stroke-opacity:1"
       d="m 1.8595881,12.080698 c 0.00362,-0.08207 0.1157339,-0.03111 0.1503518,-0.07517 0.2088711,-0.265836 0.376621,-0.572634 0.5450019,-0.864493 0.1024797,-0.177631 0.1203523,-0.274311 0.1315564,-0.263108 0.00624,0.0062 0.344475,0.882632 0.4134519,1.01484 0.06711,0.12863 0.129808,0.266604 0.1503455,0.22552 0.0056,-0.01121 0,-0.02506 0,-0.03759 0.075174,-0.119025 0.149729,-0.238442 0.2255216,-0.357073 0.1544121,-0.241688 0.3265376,-0.502672 0.4510429,-0.751734 0.00396,-0.0079 0.014663,0.01095 0.018791,0.01879 0.060079,0.114148 0.1302488,0.222904 0.1879367,0.338279 0.3174436,0.692609 0.085255,0.208682 0.3758671,0.770528 0.00188,0.0036 0.1248108,0.264079 0.1691346,0.319487 0.041599,0.052 0.095062,-0.09464 0.1315564,-0.150347 0.063167,-0.09641 0.6821149,-1.052427 0.8269038,-1.052427 0.00627,0 -0.0022,0.01293 0,0.01879 0.035536,0.09476 0.075601,0.187764 0.1127607,0.281901 0.056808,0.143914 0.1143868,0.287539 0.1691412,0.432247 0.1923127,0.538484 0.00457,0.02316 0.169141,0.45104 0.060532,0.157376 0.071692,-0.0094 0.2255216,-0.16914 0.1935964,-0.201042 0.4074006,-0.381924 0.6013823,-0.582594 0.1867932,-0.193234 0.2498283,-0.290069 0.4510429,-0.45104 0.099949,-0.07996 0.3250313,-0.182389 0.3382822,-0.169139 0.068686,0.06868 0.3653279,0.862749 0.4322477,1.01484 0.025974,0.05903 0.069159,0.109605 0.093965,0.16914 0.026101,0.06264 -0.027492,0.05638 0.018788,0.05638"
       id="path282" />
    <path
       style="fill:none;stroke:#008000;stroke-width:0.264583px;stroke-linecap:butt;stroke-linejoin:miter;stroke-opacity:1"
       d="M 1.0326843,5.6909639 C 1.4602736,6.3450422 1.6625769,7.1197313 2.0851095,7.7770238 2.1789088,7.922938 2.185828,7.3985624 2.2166659,7.2696035 2.2475377,7.1405029 2.3097207,7.020774 2.3482159,6.893738 2.4161293,6.6696206 2.4803108,6.1790815 2.6489133,6.0104506 2.791951,5.8673891 3.4172506,7.0214624 3.4946127,7.1568441 c 0.047442,0.083023 0.059631,0.2140734 0.1503455,0.2443126 0.00841,0.0028 0.013716,-0.011533 0.018796,-0.018793 C 3.7026109,7.3268527 3.742891,7.2720556 3.7765085,7.2132239 3.9109456,6.9779546 4.156906,6.4986505 4.2839319,6.2547637 4.3192131,6.1870245 4.5966824,5.6003629 4.6785881,5.5594101 4.7704867,5.5134607 4.8604923,5.6657268 4.9229052,5.7473437 5.0815014,5.9547381 5.196792,6.19243 5.3175616,6.4239033 5.4128825,6.6066 5.5184878,6.96313 5.6558439,7.100463 c 0.00443,0.00443 -0.00304,-0.013317 0,-0.018793 0.0287,-0.051661 0.064432,-0.099156 0.093965,-0.1503455 C 5.9206955,6.6351231 6.0451626,6.3403656 6.1820564,6.0292429 6.250225,5.874314 6.3198125,5.7195399 6.3699932,5.7661365 c 0.3423184,0.3178683 0.479008,0.6782117 0.7329386,1.0524267 0.050115,0.05638 0.1002303,0.1127599 0.1503456,0.1691397 0.00627,0.018793 0.00781,0.039897 0.018796,0.05638 0.01909,0.028634 0.097194,-0.088273 0.1503457,-0.1879335 C 7.4909861,6.7275844 7.5516678,6.5948575 7.6103495,6.46149 7.8494585,5.9180583 8.0526317,5.2934782 8.5500201,4.9204368 c 0.3694067,-0.277055 0.6357575,0.1726759 0.8644951,0.4134536 0.042712,0.04496 0.08488,0.090716 0.13155,0.1315532 0.00471,0.00412 0.017386,0.0061 0.018796,0 0.0369,-0.1598975 0.037585,-0.2930171 0.037585,-0.45104"
       id="path448" />
    <path
       style="fill:none;stroke:#008000;stroke-width:0.264583px;stroke-linecap:butt;stroke-linejoin:miter;stroke-opacity:1"
       d="m 6.9149949,0.56038281 c 0.1372348,0.32021412 0.052632,0.11387833 0.2631125,0.73294019 0.038261,0.1125325 0.073876,0.2259601 0.1127545,0.3382806 0.095924,0.2771227 0.04987,0.2008502 0.2255216,-0.075174 0.064536,-0.1014145 0.1488128,-0.2257324 0.2255213,-0.3194867 0.019836,-0.024243 0.049114,-0.073755 0.075176,-0.05638 0.2602373,0.1734903 0.391904,0.451693 0.545002,0.714147 0.011202,0.019203 0.1193797,0.2133472 0.1691409,0.2631071 0.050201,0.050199 0.6637817,-0.575826 0.7141493,-0.6765606 0.0056,-0.011206 -0.0056,-0.02638 0,-0.037586 C 9.286988,1.3604224 9.758987,2.2328911 9.8091705,2.3081637 9.849696,2.3689493 9.9442618,2.2458472 9.9971073,2.1954035 10.118196,2.0798178 10.320468,1.823633 10.410559,1.66919 c 0.09969,-0.170895 0.07304,-0.2033079 0.169141,-0.3570731 0.06095,-0.097519 0.125929,0.1941189 0.169135,0.3006928 0.01701,0.041955 0.25194,0.8533174 0.281902,0.8832873 0.0044,0.00443 -0.0031,-0.013333 0,-0.018793 0.05373,-0.09551 0.109883,-0.1897214 0.169141,-0.2819003 0.111912,-0.1740832 0.157035,-0.2501666 0.300691,-0.3758671 0.09154,-0.080097 0.153455,0.1913462 0.206726,0.3006935 0.06881,0.1412422 0.125157,0.2882228 0.187937,0.4322467 0.02357,0.054072 0.306883,0.73294 0.263106,0.73294"
       id="path483" />
    <path
       style="fill:none;stroke:#008000;stroke-width:0.264583px;stroke-linecap:butt;stroke-linejoin:miter;stroke-opacity:1"
       d="m 8.4748435,9.6751514 c 0.1397127,0.3317936 0.2899712,0.6551166 0.4510429,0.9772526 0.018793,0.03759 0.037588,0.07517 0.056381,0.112761 0.00626,0.01253 0.00478,0.03759 0.018788,0.03759 0.012528,0 -0.0029,-0.0254 0,-0.03759 0.1070198,-0.44946 0.063758,-0.232525 0.1691413,-0.601387 0.02296,-0.08036 0.019002,-0.1695597 0.05638,-0.2443143 0.00627,-0.012528 0.024297,-0.014364 0.037585,-0.018793 0.04773,-0.015909 0.2957599,0.7656053 0.375867,0.8456993 0.025061,0.02506 0.018793,-0.01879 0.018796,-0.01879 0.023855,-0.119271 0.043172,-0.239726 0.075176,-0.357074 0.017854,-0.06547 0.2775563,-0.916511 0.3570713,-0.9960463 0.02971,-0.029719 0.03983,0.074135 0.05638,0.1127607 0.0431,0.1005572 0.08845,0.200135 0.13155,0.3006926 0.07303,0.1704136 0.151843,0.453276 0.263107,0.620181 0.0035,0.0052 -0.0022,-0.01293 0,-0.01879 0.03553,-0.09476 0.07567,-0.187738 0.11276,-0.281901 0.107607,-0.2731506 0.200244,-0.5573131 0.413452,-0.7705259 0.06762,-0.067617 0.114426,0.1556956 0.150352,0.2443138 0.119084,0.2937375 0.203126,0.6005111 0.300691,0.9020791 0.02199,0.06796 0.0059,0.156225 0.05638,0.206726 0.02506,0.02506 0.01879,-0.01879 0.0188,-0.01879 0.05419,-0.13247 0.110687,-0.264013 0.169135,-0.394661 0.03038,-0.06792 0.288343,-0.6515898 0.375867,-0.6953519 0.02664,-0.013322 0.02977,0.02418 0.03759,0.037586 0.185918,0.3187099 0.04982,0.052561 0.206726,0.4134539 0.115741,0.266208 0.09396,0.322666 0.09396,0.09397"
       id="path485" />
  </g>
</svg>
