<?xml version="1.0" encoding="UTF-8" standalone="no"?>
<!-- Created with Inkscape (http://www.inkscape.org/) -->

<svg
   width="50"
   height="50"
   viewBox="0 0 13.229166 13.229167"
   version="1.1"
   id="svg5"
   inkscape:version="1.1.1 (3bf5ae0d25, 2021-09-20)"
   sodipodi:docname="tank.svg"
   xmlns:inkscape="http://www.inkscape.org/namespaces/inkscape"
   xmlns:sodipodi="http://sodipodi.sourceforge.net/DTD/sodipodi-0.dtd"
   xmlns="http://www.w3.org/2000/svg"
   xmlns:svg="http://www.w3.org/2000/svg">
  <sodipodi:namedview
     id="namedview7"
     pagecolor="#ffffff"
     bordercolor="#666666"
     borderopacity="1.0"
     inkscape:pageshadow="2"
     inkscape:pageopacity="0.0"
     inkscape:pagecheckerboard="0"
     inkscape:document-units="mm"
     showgrid="false"
     units="px"
     width="50px"
     inkscape:zoom="20.496745"
     inkscape:cx="33.444334"
     inkscape:cy="27.809293"
     inkscape:window-width="1680"
     inkscape:window-height="1013"
     inkscape:window-x="1920"
     inkscape:window-y="0"
     inkscape:window-maximized="1"
     inkscape:current-layer="layer1" />
  <defs
     id="defs2" />
  <g
     inkscape:label="Layer 1"
     inkscape:groupmode="layer"
     id="layer1">
    <rect
       style="fill:#cccccc;stroke:#cccccc;stroke-width:0.264999"
       id="rect124"
       width="8.7175131"
       height="8.3454256"
       x="2.6247559"
       y="2.2330716" />
    <path
       style="fill:none;stroke:#000000;stroke-width:0.264583px;stroke-linecap:butt;stroke-linejoin:miter;stroke-opacity:1"
       d="M 2.2260865,3.4290722 H 11.98014"
       id="path367" />
    <path
       style="fill:none;stroke:#000000;stroke-width:0.264583px;stroke-linecap:butt;stroke-linejoin:miter;stroke-opacity:1"
       d="M 2.1463615,4.5984951 H 11.900406"
       id="path369" />
    <path
       style="fill:none;stroke:#000000;stroke-width:0.264583px;stroke-linecap:butt;stroke-linejoin:miter;stroke-opacity:1"
       d="M 2.2526674,5.7147629 H 12.033293"
       id="path371" />
    <path
       style="fill:none;stroke:#000000;stroke-width:0.264583px;stroke-linecap:butt;stroke-linejoin:miter;stroke-opacity:1"
       d="M 2.2260865,6.9639176 H 12.113027"
       id="path373" />
    <path
       style="fill:none;stroke:#000000;stroke-width:0.264583px;stroke-linecap:butt;stroke-linejoin:miter;stroke-opacity:1"
       d="M 2.1463615,7.9207176 H 11.953559"
       id="path375" />
    <path
       style="fill:none;stroke:#000000;stroke-width:0.264583px;stroke-linecap:butt;stroke-linejoin:miter;stroke-opacity:1"
       d="M 2.0666276,8.9040964 H 11.714357"
       id="path377" />
    <path
       style="fill:#806600;stroke:#000000;stroke-width:0.264583px;stroke-linecap:butt;stroke-linejoin:miter;stroke-opacity:1"
       d="M 2.0134658,9.8874751 H 11.767519"
       id="path379" />
    <path
       style="fill:none;stroke:#806600;stroke-width:0.264583px;stroke-linecap:butt;stroke-linejoin:miter;stroke-opacity:1"
       d="m 2.3404348,10.697774 c 0.2443129,0 0.4886256,0 0.7329387,0 0.079597,0 0.1557287,-0.01351 0.2349193,-0.01879 0.1856036,-0.01237 0.3879485,-0.01158 0.5731952,0 0.1384633,0.0087 0.2768547,0.01807 0.4134519,0.03759 0.1230083,0.01757 0.2709228,0 0.3946626,0 0.2249299,0 0.4506507,0.0094 0.6765581,0.0094 0.1768927,0 0.3592221,0.01357 0.5356106,0 0.1034425,-0.008 0.2073703,-0.02731 0.3100887,-0.03759 0.1071629,-0.01072 0.2211102,0 0.3288845,0 0.3177767,0 0.6324939,0.0071 0.9490625,0.02819 0.1829139,0.01219 0.371099,0 0.5544058,0 0.2689871,0 0.5385017,0.0094 0.8081113,0.0094 0.1384792,0 0.2848801,-0.0115 0.4228497,0 0.1098478,0.0092 0.2193737,0.03525 0.3288845,0.04698 0.3387381,0.03629 0.6836628,0.07455 1.0242378,0.08457 0.191077,0.0056 0.313328,-0.01857 0.498023,-0.04698 0.06208,-0.0096 0.126848,-0.0094 0.187934,-0.01879 0.101878,-0.01567 0.02932,-0.01902 0.122155,-0.03759 0.06428,-0.01286 0.131748,-2.8e-5 0.197331,-0.0094 0.0542,-0.0077 0.106816,-0.01879 0.159744,-0.01879"
       id="path1146" />
    <path
       style="fill:none;stroke:#806600;stroke-width:0.264583px;stroke-linecap:butt;stroke-linejoin:miter;stroke-opacity:1"
       d="m 2.88544,10.744757 c 0.015661,0.02819 0.037596,0.05372 0.046986,0.08457 0.012898,0.04238 0.012528,0.0877 0.018793,0.131553 0.030605,0.214246 0.02819,0.422729 0.02819,0.638973 0,0.152082 -0.00637,0.320073 0.02819,0.469834 0.010679,0.04627 0.029843,0.07759 0.046983,0.122157 0.04525,0.117651 0.082636,0.242108 0.1033629,0.36647 0.022648,0.135893 0.051037,0.360939 0.02819,0.498023 -0.010739,0.06444 -0.033839,0.120488 -0.037585,0.187933 -0.00685,0.123349 0.016539,0.361593 -0.037588,0.469834"
       id="path1148" />
    <path
       style="fill:none;stroke:#806600;stroke-width:0.264583px;stroke-linecap:butt;stroke-linejoin:miter;stroke-opacity:1"
       d="m 4.6238244,10.76355 c 0.00339,0.134573 -0.00448,0.269521 0,0.404057 0.00681,0.204227 0.037279,0.406972 0.046983,0.610784 0.012809,0.269065 -0.011261,0.539594 0.0094,0.808113 0.00491,0.06387 0.014018,0.05602 0.02819,0.122157 0.014383,0.06713 0.01057,0.140653 0.02819,0.206726 0.00615,0.02305 0.020648,0.04315 0.02819,0.06578 0.00701,0.02102 0.014073,0.08449 0.018793,0.103363 0.02788,0.111519 0.046983,0.204749 0.046983,0.319487"
       id="path1150" />
    <path
       style="fill:none;stroke:#806600;stroke-width:0.264583px;stroke-linecap:butt;stroke-linejoin:miter;stroke-opacity:1"
       d="m 5.7514256,10.895103 c -0.00804,0.163205 0.00474,0.325799 0.0094,0.488628 0.014451,0.505923 -0.014862,1.017482 0.018796,1.522259 0.011888,0.178299 0.037585,0.358266 0.037585,0.535611 0,0.02431 0.0094,0.281238 0.0094,0.14095"
       id="path1152" />
    <path
       style="fill:none;stroke:#806600;stroke-width:0.264583px;stroke-linecap:butt;stroke-linejoin:miter;stroke-opacity:1"
       d="m 6.8508334,10.678981 c 0.053059,0.260783 0.046986,0.524666 0.046986,0.789319 0,0.48881 0.0094,0.976819 0.0094,1.465881 0,0.08018 0.011356,0.165753 0.02819,0.244313 0.013552,0.06325 0.023802,0.0607 0.02819,0.122157 0.00702,0.09831 -0.010184,0.05244 0.0094,0.150346 9.789e-4,0.0049 0.037673,0.0938 0.02819,0.11276 -0.00449,0.009 -0.02819,-0.0071 -0.02819,-0.01879"
       id="path1154" />
    <path
       style="fill:none;stroke:#806600;stroke-width:0.264583px;stroke-linecap:butt;stroke-linejoin:miter;stroke-opacity:1"
       d="m 5.7514256,10.895103 c -0.1023389,-0.05592 -0.039836,-0.0429 -0.02819,-0.112759 0.00692,-0.04151 -0.037123,-0.213803 0.02819,0.112759"
       id="path1156" />
    <path
       style="fill:none;stroke:#806600;stroke-width:0.264583px;stroke-linecap:butt;stroke-linejoin:miter;stroke-opacity:1"
       d="m 8.861722,10.76355 c 0.054456,0.181531 0.061678,0.375291 0.065775,0.5638 0.00837,0.385039 -0.010694,0.770819 0,1.155791 0.00447,0.16076 0.037285,0.319185 0.046986,0.47923 0.018455,0.304475 -0.027283,-0.01208 0.018793,0.328883 0.021897,0.162036 0.070893,0.317723 0.093965,0.47923 0.00183,0.01279 0.037286,0.2819 0.037588,0.2819 0.012914,0 -0.00362,-0.02604 -0.0094,-0.03759"
       id="path1158" />
    <path
       style="fill:none;stroke:#806600;stroke-width:0.264583px;stroke-linecap:butt;stroke-linejoin:miter;stroke-opacity:1"
       d="m 10.092686,10.76355 c 0.03898,0.222328 0.08122,0.442067 0.103363,0.667164 0.02585,0.262743 0.01698,0.526554 0.03758,0.78932 0.0241,0.307245 0.08261,0.608031 0.131553,0.911476 0.02663,0.165125 0.04806,0.331634 0.05638,0.498025 0.0022,0.04391 0.02006,0.0889 0.0094,0.131552 -0.0038,0.0152 -0.02119,-0.02358 -0.02819,-0.03759"
       id="path1160" />
    <path
       style="fill:none;stroke:#806600;stroke-width:0.264583px;stroke-linecap:butt;stroke-linejoin:miter;stroke-opacity:1"
       d="m 11.342269,10.578497 c -0.01873,0.105535 -0.04365,0.210159 -0.05621,0.316606 -0.0062,0.05288 0,0.106496 0,0.159744 0,0.194781 -1.33e-4,0.388025 -0.0094,0.582594 -0.0109,0.228884 -0.01307,0.457071 -0.01879,0.685956 -0.0054,0.216575 -0.02795,0.441295 -0.0094,0.657767 0.01075,0.12546 0.05108,0.250919 0.06578,0.375866 0.0066,0.05588 -0.003,0.114669 0.01879,0.169141 0.0068,0.01696 0.02077,0.03029 0.02819,0.04698 0.03667,0.0825 -0.01411,-0.0071 0.0094,0.07517 0.0072,0.02503 0.06549,0.09397 0.01879,0.09397"
       id="path1162" />
  </g>
</svg>
